<svg xmlns="http://www.w3.org/2000/svg" xmlns:svg="http://www.w3.org/2000/svg" id="svg1" width="1116.365" height="330.168" version="1.1" viewBox="0 0 295.372 87.357"><defs id="defs1"><marker style="overflow:visible" id="marker29" markerHeight="1" markerWidth="1" orient="auto-start-reverse" preserveAspectRatio="xMidYMid" refX="0" refY="0" viewBox="0 0 1 1"><g id="g29" transform="scale(-0.7)"><path style="fill:none;fill-opacity:.75;fill-rule:evenodd;stroke:context-stroke;stroke-width:1.25" id="path25" d="m -4.7792281,-3.239542 c 2.350374,0.3659393 5.30026732,1.9375477 5.03715532,3.62748546 C -0.00518779,2.0778819 -2.2126741,2.6176539 -4.5630471,2.2517169 -6.9134221,1.8857769 -8.521035,0.75201414 -8.257922,-0.93792336 -7.994809,-2.6278615 -7.1296041,-3.6054813 -4.7792281,-3.239542 Z"/><path style="fill:none;fill-opacity:.75;fill-rule:evenodd;stroke:context-stroke;stroke-width:1pt" id="path26" d="M 4.4598789,0.08866574 C -2.5564571,-4.378332 5.2248769,-3.9061806 -0.84829578,-8.7197331"/><path style="fill:none;fill-opacity:.75;fill-rule:evenodd;stroke:context-stroke;stroke-width:1pt" id="path27" d="M 4.9298719,0.05752074 C -1.3872731,1.7494689 1.8027579,5.4782079 -4.9448731,7.5462725"/><rect style="fill:context-stroke;fill-rule:evenodd;stroke-width:1pt" id="rect27" width="2.637" height="2.761" x="-10.392" y="-1.741" transform="matrix(0.527536,-0.849533,0.887668,0.460484,0,0)"/><rect style="fill:context-stroke;fill-rule:evenodd;stroke-width:1pt" id="rect28" width="2.733" height="2.861" x="4.959" y="-7.963" transform="matrix(0.671205,-0.741272,0.790802,0.612072,0,0)"/><path style="fill:red;fill-opacity:.75;fill-rule:evenodd;stroke:context-stroke;stroke-width:1pt" id="path28" d="m 16.779951,-28.685045 a 0.60731727,0.60731727 0 1 0 -1.214634,0 0.60731727,0.60731727 0 1 0 1.214634,0 z" transform="matrix(0,-1.109517,1.109517,0,25.96648,19.71619)"/><path style="fill:red;fill-opacity:.75;fill-rule:evenodd;stroke:context-stroke;stroke-width:1pt" id="path29" d="m 16.779951,-28.685045 a 0.60731727,0.60731727 0 1 0 -1.214634,0 0.60731727,0.60731727 0 1 0 1.214634,0 z" transform="matrix(0,-1.109517,1.109517,0,26.8245,16.99126)"/></g></marker><marker style="overflow:visible" id="Legs" markerHeight="1" markerWidth="1" orient="auto-start-reverse" preserveAspectRatio="xMidYMid" refX="0" refY="0" viewBox="0 0 1 1"><g id="g41" transform="scale(-0.7)"><g id="g39" transform="matrix(0,-1,-1,0,20.70862,21.31391)"><path style="fill:none;fill-opacity:.75;fill-rule:evenodd;stroke:context-stroke;stroke-width:1pt" id="path38" d="m 21.22125,20.67536 c -6.910151,4.721157 -2.454525,6.606844 -5.841071,13.443235"/><path style="fill:none;fill-opacity:.75;fill-rule:evenodd;stroke:context-stroke;stroke-width:1pt" id="path39" d="m 21.39811,20.54812 c -1.360509,8.347524 3.536072,8.76994 4.505041,13.824958"/></g><path style="fill:context-stroke;fill-rule:evenodd;stroke-width:1pt" id="path40" d="m -14.09007,-6.7318716 -0.922168,4.043383 3.962751,-1.22307 z"/><path style="fill:context-stroke;fill-rule:evenodd;stroke-width:1pt" id="path41" d="m -15.215679,4.5567534 1.874127,3.699613 2.266874,-3.472855 z"/></g></marker><marker style="overflow:visible" id="ColoredDiamond" markerHeight="1" markerWidth="1" orient="auto" preserveAspectRatio="xMidYMid" refX="0" refY="0" viewBox="0 0 1 1"><path transform="scale(0.45)" style="fill:context-fill;fill-rule:evenodd;stroke:context-stroke;stroke-width:2" id="path22" d="M 0,-7.0710768 -7.0710894,0 0,7.0710589 7.0710462,0 Z"/></marker><marker style="overflow:visible" id="ArrowWideRounded" markerHeight="1" markerWidth="1" orient="auto-start-reverse" preserveAspectRatio="xMidYMid" refX="0" refY="0" viewBox="0 0 1 1"><path style="fill:none;stroke:context-stroke;stroke-width:1;stroke-linecap:round" id="path2" d="M 3,-3 0,0 3,3" transform="rotate(180,0.125,0)"/></marker><marker style="overflow:visible" id="ArrowWide" markerHeight="1" markerWidth="1" orient="auto-start-reverse" preserveAspectRatio="xMidYMid" refX="0" refY="0" viewBox="0 0 1 1"><path style="fill:none;stroke:context-stroke;stroke-width:1;stroke-linecap:butt" id="path1" d="M 3,-3 0,0 3,3" transform="rotate(180,0.125,0)"/></marker><marker style="overflow:visible" id="Torso" markerHeight="1" markerWidth="1" orient="auto-start-reverse" preserveAspectRatio="xMidYMid" refX="0" refY="0" viewBox="0 0 1 1"><g id="g37" transform="scale(-0.7)"><path style="fill:none;fill-opacity:.75;fill-rule:evenodd;stroke:context-stroke;stroke-width:1.25" id="path33" d="m -4.7792281,-3.239542 c 2.350374,0.3659393 5.30026732,1.9375477 5.03715532,3.62748546 C -0.00518779,2.0778819 -2.2126741,2.6176539 -4.5630471,2.2517169 -6.9134221,1.8857769 -8.521035,0.75201414 -8.257922,-0.93792336 -7.994809,-2.6278615 -7.1296041,-3.6054813 -4.7792281,-3.239542 Z"/><path style="fill:none;fill-opacity:.75;fill-rule:evenodd;stroke:context-stroke;stroke-width:1pt" id="path34" d="M 4.4598789,0.08866574 C -2.5564571,-4.378332 5.2248769,-3.9061806 -0.84829578,-8.7197331"/><path style="fill:none;fill-opacity:.75;fill-rule:evenodd;stroke:context-stroke;stroke-width:1pt" id="path35" d="M 4.9298719,0.05752074 C -1.3872731,1.7494689 1.8027579,5.4782079 -4.9448731,7.5462725"/><rect style="fill:context-stroke;fill-rule:evenodd;stroke-width:1pt" id="rect35" width="2.637" height="2.761" x="-10.392" y="-1.741" transform="matrix(0.527536,-0.849533,0.887668,0.460484,0,0)"/><rect style="fill:context-stroke;fill-rule:evenodd;stroke-width:1pt" id="rect36" width="2.733" height="2.861" x="4.959" y="-7.963" transform="matrix(0.671205,-0.741272,0.790802,0.612072,0,0)"/><path style="fill:red;fill-opacity:.75;fill-rule:evenodd;stroke:context-stroke;stroke-width:1pt" id="path36" d="m 16.779951,-28.685045 a 0.60731727,0.60731727 0 1 0 -1.214634,0 0.60731727,0.60731727 0 1 0 1.214634,0 z" transform="matrix(0,-1.109517,1.109517,0,25.96648,19.71619)"/><path style="fill:red;fill-opacity:.75;fill-rule:evenodd;stroke:context-stroke;stroke-width:1pt" id="path37" d="m 16.779951,-28.685045 a 0.60731727,0.60731727 0 1 0 -1.214634,0 0.60731727,0.60731727 0 1 0 1.214634,0 z" transform="matrix(0,-1.109517,1.109517,0,26.8245,16.99126)"/></g></marker></defs><g id="layer1" transform="translate(5.3629176,-42.089005)"><rect style="fill:#002f38;stroke-width:.649999;stroke-linejoin:round;fill-opacity:1" id="rect1" width="54.642" height="18.321" x="15.081" y="42.089"/><text xml:space="preserve" style="font-size:6.35px;font-family:UnVada;-inkscape-font-specification:'UnVada, Normal';text-align:center;text-anchor:middle;fill:#fff;fill-opacity:1;stroke:none;stroke-width:.649999;stroke-linejoin:round" id="text1" x="42.348" y="53.393"><tspan id="tspan1" style="font-size:6.35px;fill:#fff;fill-opacity:1;stroke:none;stroke-width:.65" x="42.348" y="53.393">Introduction</tspan></text><rect style="fill:#002f38;stroke-width:.649999;stroke-linejoin:round;fill-opacity:1" id="rect1-0" width="54.642" height="18.321" x="84.604" y="42.089"/><text xml:space="preserve" style="font-size:6.35px;font-family:UnVada;-inkscape-font-specification:'UnVada, Normal';text-align:center;text-anchor:middle;fill:#fff;fill-opacity:1;stroke:none;stroke-width:.649999;stroke-linejoin:round" id="text1-1" x="111.868" y="53.396"><tspan id="tspan1-5" style="font-size:6.35px;fill:#fff;fill-opacity:1;stroke:none;stroke-width:.65" x="111.868" y="53.396">Processus</tspan></text><rect style="fill:#002f38;stroke-width:.649999;stroke-linejoin:round;fill-opacity:1" id="rect1-3" width="54.642" height="18.321" x="154.127" y="42.089"/><text xml:space="preserve" style="font-size:6.35px;font-family:UnVada;-inkscape-font-specification:'UnVada, Normal';text-align:center;text-anchor:middle;fill:#fff;fill-opacity:1;stroke:none;stroke-width:.649999;stroke-linejoin:round" id="text1-4" x="181.239" y="49.011"><tspan id="tspan1-4" style="font-size:6.35px;fill:#fff;fill-opacity:1;stroke:none;stroke-width:.65" x="181.239" y="49.011">Processus léger</tspan><tspan style="font-size:6.35px;fill:#fff;fill-opacity:1;stroke:none;stroke-width:.65" id="tspan11" x="181.239" y="56.949">(Threads)</tspan></text><rect style="fill:#002f38;stroke-width:.649999;stroke-linejoin:round;fill-opacity:1" id="rect1-2" width="54.642" height="18.321" x="15.081" y="76.607"/><text xml:space="preserve" style="font-size:6.35px;font-family:UnVada;-inkscape-font-specification:'UnVada, Normal';text-align:center;text-anchor:middle;fill:#fff;fill-opacity:1;stroke:none;stroke-width:.649999;stroke-linejoin:round" id="text1-43" x="42.488" y="87.403"><tspan id="tspan1-7" style="font-size:6.35px;fill:#fff;fill-opacity:1;stroke:none;stroke-width:.65" x="42.488" y="87.403">Synchronisation</tspan></text><rect style="fill:#002f38;stroke-width:.649999;stroke-linejoin:round;fill-opacity:1" id="rect1-4" width="54.642" height="18.321" x="223.65" y="42.089"/><text xml:space="preserve" style="font-size:6.35px;font-family:UnVada;-inkscape-font-specification:'UnVada, Normal';text-align:center;text-anchor:middle;fill:#fff;fill-opacity:1;stroke:none;stroke-width:.649999;stroke-linejoin:round" id="text1-43-1" x="251.057" y="53.424"><tspan id="tspan1-7-1" style="font-size:6.35px;fill:#fff;fill-opacity:1;stroke:none;stroke-width:.65" x="251.057" y="53.424">Communication</tspan></text><rect style="fill:#002f38;stroke-width:.649999;stroke-linejoin:round;fill-opacity:.85202384" id="rect1-5" width="54.642" height="18.321" x="15.081" y="111.125"/><text xml:space="preserve" style="font-size:6.35px;font-family:UnVada;-inkscape-font-specification:'UnVada, Normal';text-align:center;text-anchor:middle;fill:#d9d9d9;fill-opacity:1;stroke:none;stroke-width:.649999;stroke-linejoin:round" id="text1-2" x="42.332" y="118.495"><tspan style="font-size:6.35px;fill:#d9d9d9;fill-opacity:1;stroke:none;stroke-width:.65" id="tspan6" x="42.332" y="118.495">Gestion de la </tspan><tspan style="font-size:6.35px;fill:#d9d9d9;fill-opacity:1;stroke:none;stroke-width:.65" id="tspan10" x="42.332" y="126.432">mémoire avancée</tspan></text><rect style="fill:#002f38;stroke-width:.75;stroke-linejoin:round;fill-opacity:.85002226;stroke:#bb6e2b;stroke-opacity:1;stroke-dasharray:none" id="rect1-1" width="54.642" height="18.321" x="223.511" y="76.607"/><text xml:space="preserve" style="font-size:6.35px;font-family:UnVada;-inkscape-font-specification:'UnVada, Normal';text-align:center;text-anchor:middle;fill:#bb6e2b;fill-opacity:1;stroke:none;stroke-width:.649999;stroke-linejoin:round" id="text1-3" x="251.048" y="83.977"><tspan id="tspan1-55" style="font-size:6.35px;fill:#bb6e2b;fill-opacity:1;stroke:none;stroke-width:.65" x="251.048" y="83.977">Gestion de </tspan><tspan style="font-size:6.35px;fill:#bb6e2b;fill-opacity:1;stroke:none;stroke-width:.65" id="tspan7" x="251.048" y="91.914">la mémoire</tspan></text><rect style="fill:#002f38;stroke-width:.649999;stroke-linejoin:round;fill-opacity:1" id="rect1-31" width="54.642" height="18.321" x="152.518" y="76.607"/><text xml:space="preserve" style="font-size:6.35px;font-family:UnVada;-inkscape-font-specification:'UnVada, Normal';text-align:center;text-anchor:middle;fill:#fff;fill-opacity:1;stroke:none;stroke-width:.649999;stroke-linejoin:round" id="text1-7" x="179.712" y="87.336"><tspan id="tspan1-0" style="font-size:6.35px;fill:#fff;fill-opacity:1;stroke:none;stroke-width:.65" x="179.712" y="87.336">Interblocage</tspan></text><rect style="fill:#002f38;stroke-width:.649999;stroke-linejoin:round;fill-opacity:1" id="rect1-8" width="54.642" height="18.321" x="83.8" y="76.607"/><text xml:space="preserve" style="font-size:6.35px;font-family:UnVada;-inkscape-font-specification:'UnVada, Normal';text-align:center;text-anchor:middle;fill:#fff;fill-opacity:1;stroke:none;stroke-width:.649999;stroke-linejoin:round" id="text1-13" x="111.006" y="87.942"><tspan id="tspan1-02" style="font-size:6.35px;fill:#fff;fill-opacity:1;stroke:none;stroke-width:.65" x="111.006" y="87.942">Ordonnancement</tspan></text><rect style="fill:#002f38;stroke-width:.649999;stroke-linejoin:round;fill-opacity:.85202384" id="rect1-6" width="54.642" height="18.321" x="154.127" y="111.125"/><text xml:space="preserve" style="font-size:6.35px;font-family:UnVada;-inkscape-font-specification:'UnVada, Normal';text-align:center;text-anchor:middle;fill:#fff;fill-opacity:.85152757;stroke:none;stroke-width:.649999;stroke-linejoin:round" id="text1-6" x="182.267" y="118.558"><tspan id="tspan1-43" style="font-size:6.35px;fill:#fff;fill-opacity:.85152757;stroke:none;stroke-width:.65" x="182.267" y="118.558">Système de </tspan><tspan style="font-size:6.35px;fill:#fff;fill-opacity:.85152757;stroke:none;stroke-width:.65" id="tspan4" x="182.267" y="126.496">fichier</tspan></text><rect style="fill:#002f38;stroke-width:.649999;stroke-linejoin:round;fill-opacity:.85202384" id="rect1-26" width="54.642" height="18.321" x="84.604" y="111.125"/><text xml:space="preserve" style="font-size:6.35px;font-family:UnVada;-inkscape-font-specification:'UnVada, Normal';text-align:center;text-anchor:middle;fill:#fff;fill-opacity:.85152757;stroke:none;stroke-width:.649999;stroke-linejoin:round" id="text1-6-8" x="111.95" y="117.98"><tspan style="font-size:6.35px;fill:#fff;fill-opacity:.85152757;stroke:none;stroke-width:.65" id="tspan4-4" x="111.95" y="117.98">Mémoire</tspan><tspan style="font-size:6.35px;fill:#fff;fill-opacity:.85152757;stroke:none;stroke-width:.65" id="tspan12" x="111.95" y="125.918">de stockage</tspan></text><rect style="fill:#002f38;stroke-width:.649999;stroke-linejoin:round;fill-opacity:.85202384" id="rect1-69" width="54.642" height="18.321" x="223.65" y="111.125"/><text xml:space="preserve" style="font-size:6.35px;font-family:UnVada;-inkscape-font-specification:'UnVada, Normal';text-align:center;text-anchor:middle;fill:#fff;fill-opacity:.85152757;stroke:none;stroke-width:.649999;stroke-linejoin:round" id="text1-0" x="251.085" y="118.558"><tspan id="tspan1-9" style="font-size:6.35px;fill:#fff;fill-opacity:.85152757;stroke:none;stroke-width:.65" x="251.085" y="118.558">Système de </tspan><tspan style="font-size:6.35px;fill:#fff;fill-opacity:.85152757;stroke:none;stroke-width:.65" id="tspan2" x="251.085" y="126.496">fichier avancé</tspan></text><path style="fill:#000;fill-opacity:1;stroke:#bb6e2b;stroke-width:.65;stroke-linejoin:round;stroke-dasharray:none;stroke-opacity:1;marker-end:url(#marker29)" id="path12" d="m 208.85395,86.126844 h 9.81279"/><path style="fill:#000;fill-opacity:1;stroke:#bb6e2b;stroke-width:.65;stroke-linejoin:round;stroke-dasharray:none;stroke-dashoffset:0;stroke-opacity:1" id="path12-9" d="m 71.290344,51.249481 h 11.74641"/><path style="fill:#000;fill-opacity:1;stroke:#bb6e2b;stroke-width:.65;stroke-linejoin:round;stroke-dasharray:none;stroke-dashoffset:0;stroke-opacity:1;marker-start:url(#Legs)" id="path12-9-3" d="M 1.5602161,51.401768 H 13.306626"/><path style="fill:#000;fill-opacity:1;stroke:#bb6e2b;stroke-width:.65;stroke-linejoin:round;stroke-dasharray:none;stroke-dashoffset:0;stroke-opacity:1" id="path12-9-5" d="m 140.81335,51.249481 h 11.74641"/><path style="fill:#000;fill-opacity:1;stroke:#bb6e2b;stroke-width:.65;stroke-linejoin:round;stroke-dasharray:none;stroke-dashoffset:0;stroke-opacity:1" id="path12-9-67" d="m 210.33635,51.249481 h 11.74641"/><path style="fill:#000;fill-opacity:1;stroke:#bb6e2b;stroke-width:.65;stroke-linejoin:round;stroke-dasharray:none;stroke-dashoffset:0;stroke-opacity:1" id="path12-9-66" d="m 70.888031,85.767471 h 11.74641"/><path style="fill:#000;fill-opacity:1;stroke:#bb6e2b;stroke-width:.65;stroke-linejoin:round;stroke-dasharray:none;stroke-dashoffset:0;stroke-opacity:1" id="path12-9-0" d="m 139.60641,85.767471 h 11.74641"/><path style="fill:#000;fill-opacity:1;stroke:#000;stroke-width:.65;stroke-linejoin:round;stroke-dasharray:.65,.65;stroke-dashoffset:0;stroke-opacity:1" id="path12-9-6" d="m 71.290345,120.28545 h 11.74641"/><path style="fill:#000;fill-opacity:1;stroke:#000;stroke-width:.65;stroke-linejoin:round;stroke-dasharray:.65,.65;stroke-dashoffset:0;stroke-opacity:1" id="path12-9-8" d="m 140.81335,120.28545 h 11.74641"/><path style="fill:#000;fill-opacity:1;stroke:#000;stroke-width:.65;stroke-linejoin:round;stroke-dasharray:.65,.65;stroke-dashoffset:0;stroke-opacity:1" id="path12-9-9" d="m 210.33635,120.28545 h 11.74641"/><path style="fill:none;fill-opacity:1;stroke:#bb6e2b;stroke-width:.65;stroke-linejoin:round;stroke-dasharray:none;stroke-dashoffset:0;stroke-opacity:1" id="path23" d="m 283.34887,51.724541 c 8.35701,-0.342608 8.56173,16.663873 -0.0288,16.633946 H 8.2656617 c -6.0134698,0.03448 -7.1635588,17.198604 0,17.160277 h 4.9272803"/><path style="fill:none;fill-opacity:1;stroke:#000;stroke-width:.65;stroke-linejoin:round;stroke-dasharray:.65,.65;stroke-dashoffset:0;stroke-opacity:1" id="path23-1" d="m 283.18185,85.865049 c 8.35701,-0.342608 8.56173,16.663771 -0.0288,16.633851 H 8.0986439 c -6.0134698,0.0345 -7.16355885,17.1986 0,17.16027 h 4.9272801"/><path style="fill:none;fill-opacity:1;stroke:#bb6f2b;stroke-width:.65;stroke-linejoin:round;stroke-dasharray:none;stroke-dashoffset:0;stroke-opacity:.94117647" id="path24" d="m 279.5876,51.716657 h 3.92833"/><path style="fill:none;fill-opacity:1;stroke:#000;stroke-width:.65;stroke-linejoin:round;stroke-dasharray:.65,.65;stroke-dashoffset:0;stroke-opacity:1" id="path24-4" d="m 279.31816,85.767471 h 3.92833"/></g></svg>